<?xml version="1.0" encoding="iso-8859-1"?>
<!-- Generator: Adobe Illustrator 19.0.0, SVG Export Plug-In . SVG Version: 6.00 Build 0)  -->
<svg version="1.1" id="Layer_1" xmlns="http://www.w3.org/2000/svg" xmlns:xlink="http://www.w3.org/1999/xlink" x="0px" y="0px"
	 viewBox="0 0 512 512" style="enable-background:new 0 0 512 512;" xml:space="preserve">
<path style="fill:#FF9B00;" d="M511.158,312.794c-6.474-65.431-49.81-121.691-112.021-144.503l-18.443-6.758l-11.195-4.107
	c-5.234-1.923-11.07-1.172-15.644,2.025c-4.574,3.197-7.293,8.419-7.293,13.994V329.86c0,9.42,7.646,17.066,17.066,17.066h131.305
	c9.42,0,17.066-7.646,17.066-17.066C512,324.115,511.715,318.426,511.158,312.794z"/>
<path style="fill:#47568C;" d="M369.5,157.428l-24.848-9.113l-32.209-11.798l-18.955-6.952l-32.198-11.81l-43.768-16.042
	c-10.797-3.971-22.255,3.693-22.902,15.029c-1.798,30.969-27.522,55.225-58.57,55.225c-27.26,0-50.72-18.477-57.057-44.929
	c-4.346-18.135-20.252-30.81-38.671-30.81h-0.614c-21.878,0-39.684,17.805-39.684,39.684v73.702
	c0,9.751-4.792,2.285,125.241,132.318c3.208,3.197,7.543,4.995,12.071,4.995h226.294h17.066c0-7.682,0-176.765,0-185.393
	L369.5,157.428z"/>
<path style="fill:#2C3B73;" d="M369.5,157.427l-24.848-9.113l-32.209-11.798l-18.955-6.952l-32.198-11.81l-5.279-1.935v231.107
	h107.618h17.066c0-7.682,0-176.765,0-185.393L369.5,157.427z"/>
<path style="fill:#FFAF00;" d="M163.769,343.339C-3.867,175.701,6.621,184.922,0.023,182.516v198.542h148.122
	C167.753,381.06,177.68,357.25,163.769,343.339z"/>
<g>
	<path style="fill:#FFC72D;" d="M293.488,129.565l-30.946,64.304c-4.07,8.469-14.245,12.078-22.777,7.975
		c-8.487-4.084-12.06-14.278-7.975-22.777l29.501-61.312L293.488,129.565z"/>
	<path style="fill:#FFC72D;" d="M511.158,312.794H0.023v85.91c0,9.42,7.646,17.066,17.066,17.066h477.845
		c9.42,0,17.066-7.646,17.066-17.066V329.86C512,324.115,511.715,318.426,511.158,312.794z"/>
</g>
<g>
	<path style="fill:#FFAF00;" d="M261.29,117.756l-5.279,10.971v72.33c2.737-1.658,5.045-4.094,6.531-7.187l30.946-64.304
		L261.29,117.756z"/>
	<path style="fill:#FFAF00;" d="M344.652,148.315l-30.946,64.304c-4.111,8.524-14.332,12.058-22.777,7.975
		c-8.499-4.084-12.071-14.278-7.987-22.777l29.501-61.301L344.652,148.315z"/>
	<path style="fill:#FFAF00;" d="M512,329.86v68.844c0,9.42-7.646,17.066-17.066,17.066H256.011V312.794h255.147
		C511.715,318.426,512,324.115,512,329.86z"/>
</g>
<g>
</g>
<g>
</g>
<g>
</g>
<g>
</g>
<g>
</g>
<g>
</g>
<g>
</g>
<g>
</g>
<g>
</g>
<g>
</g>
<g>
</g>
<g>
</g>
<g>
</g>
<g>
</g>
<g>
</g>
</svg>
